HIERARCHY
ROOT Hips
{
	OFFSET 0.00000 0.00000 0.00000
	CHANNELS 6 Xposition Yposition Zposition Zrotation Yrotation Xrotation 
	JOINT LHipJoint
	{
		OFFSET 0 0 0
		CHANNELS 3 Zrotation Yrotation Xrotation
		JOINT LeftUpLeg
		{
			OFFSET 1.49846 -1.74315 1.08250
			CHANNELS 3 Zrotation Yrotation Xrotation
			JOINT LeftLeg
			{
				OFFSET 2.40966 -6.62050 0.00000
				CHANNELS 3 Zrotation Yrotation Xrotation
				JOINT LeftFoot
				{
					OFFSET 2.68066 -7.36505 0.00000
					CHANNELS 3 Zrotation Yrotation Xrotation
					JOINT LeftToeBase
					{
						OFFSET 0.14291 -0.39265 2.35870
						CHANNELS 3 Zrotation Yrotation Xrotation
						End Site
						{
							OFFSET 0.00000 -0.00000 1.20470
						}
					}
				}
			}
		}
	}
	JOINT RHipJoint
	{
		OFFSET 0 0 0
		CHANNELS 3 Zrotation Yrotation Xrotation
		JOINT RightUpLeg
		{
			OFFSET -1.46318 -1.74316 1.08250
			CHANNELS 3 Zrotation Yrotation Xrotation
			JOINT RightLeg
			{
				OFFSET -2.39759 -6.58734 0.00000
				CHANNELS 3 Zrotation Yrotation Xrotation
				JOINT RightFoot
				{
					OFFSET -2.63570 -7.24154 0.00000
					CHANNELS 3 Zrotation Yrotation Xrotation
					JOINT RightToeBase
					{
						OFFSET -0.17578 -0.48294 2.47180
						CHANNELS 3 Zrotation Yrotation Xrotation
						End Site
						{
							OFFSET -0.00000 -0.00000 1.26600
						}
					}
				}
			}
		}
	}
	JOINT LowerBack
	{
		OFFSET 0 0 0
		CHANNELS 3 Zrotation Yrotation Xrotation
		JOINT Spine
		{
			OFFSET 0.00843 2.19877 -0.20423
			CHANNELS 3 Zrotation Yrotation Xrotation
			JOINT Spine1
			{
				OFFSET -0.03080 2.21436 -0.05138
				CHANNELS 3 Zrotation Yrotation Xrotation
				JOINT Neck
				{
					OFFSET 0 0 0
					CHANNELS 3 Zrotation Yrotation Xrotation
					JOINT Neck1
					{
						OFFSET -0.04063 1.58841 0.30440
						CHANNELS 3 Zrotation Yrotation Xrotation
						JOINT Head
						{
							OFFSET 0.09277 1.59484 -0.39337
							CHANNELS 3 Zrotation Yrotation Xrotation
							End Site
							{
								OFFSET 0.03488 1.66530 -0.17040
							}
						}
					}
				}
				JOINT LeftShoulder
				{
					OFFSET 0 0 0
					CHANNELS 3 Zrotation Yrotation Xrotation
					JOINT LeftArm
					{
						OFFSET 3.03849 1.31522 0.02556
						CHANNELS 3 Zrotation Yrotation Xrotation
						JOINT LeftForeArm
						{
							OFFSET 5.25537 -0.00000 0.00000
							CHANNELS 3 Zrotation Yrotation Xrotation
							JOINT LeftHand
							{
								OFFSET 3.38855 -0.00000 -0.00000
								CHANNELS 3 Zrotation Yrotation Xrotation
								JOINT LeftFingerBase
								{
									OFFSET 0 0 0
									CHANNELS 3 Zrotation Yrotation Xrotation
									JOINT LeftHandIndex1
									{
										OFFSET 0.61452 -0.00000 0.00000
										CHANNELS 3 Zrotation Yrotation Xrotation
										End Site
										{
											OFFSET 0.49544 -0.00000 0.00000
										}
									}
								}
								JOINT LThumb
								{
									OFFSET 0 0 0
									CHANNELS 3 Zrotation Yrotation Xrotation
									End Site
									{
										OFFSET 0.50300 -0.00000 0.50300
									}
								}
							}
						}
					}
				}
				JOINT RightShoulder
				{
					OFFSET 0 0 0
					CHANNELS 3 Zrotation Yrotation Xrotation
					JOINT RightArm
					{
						OFFSET -3.06926 1.12091 -0.13185
						CHANNELS 3 Zrotation Yrotation Xrotation
						JOINT RightForeArm
						{
							OFFSET -5.38183 -0.00000 0.00000
							CHANNELS 3 Zrotation Yrotation Xrotation
							JOINT RightHand
							{
								OFFSET -3.16988 -0.00000 0.00000
								CHANNELS 3 Zrotation Yrotation Xrotation
								JOINT RightFingerBase
								{
									OFFSET 0 0 0
									CHANNELS 3 Zrotation Yrotation Xrotation
									JOINT RightHandIndex1
									{
										OFFSET -0.63768 -0.00000 0.00000
										CHANNELS 3 Zrotation Yrotation Xrotation
										End Site
										{
											OFFSET -0.51411 -0.00000 0.00000
										}
									}
								}
								JOINT RThumb
								{
									OFFSET 0 0 0
									CHANNELS 3 Zrotation Yrotation Xrotation
									End Site
									{
										OFFSET -0.52196 -0.00000 0.52196
									}
								}
							}
						}
					}
				}
			}
		}
	}
}
MOTION
Frames: 6
Frame Time: .0083333
3.9112 17.4255 -30.0269 0 0 0 0 0 0 -21 0 0 0 0 0 0 0 0 0 0 0 0 0 0 21 0 0 0 0 0 0 0 0 0 0 0 0 0 0 0 0 0 0 0 0 0 0 -16 0 0 21 0 0 11 0 0 0 -8 0 0 0 0 0 0 0 0 0 0 0 0 0 0 0 0 0 0 0 0 8 0 0 0 0 0 0 0 0 0 0 0 0 0 0 0 0 0
3.9112 17.4255 -30.0269 1.4843 0.8422 5.0462 0.0000 0.0000 0.0000 -23.5860 -20.3562 -6.3731 2.9555 10.6226 31.0175 1.1840 12.2720 -28.3042 0.3338 3.7130 10.2706 0.0000 0.0000 0.0000 20.4891 27.8953 -3.3499 -3.2103 -11.0280 32.3744 -2.0684 -17.3407 -37.8637 -0.1775 -2.7141 7.4837 -0.4305 -0.7635 -1.8329 -2.4936 -0.9260 2.4008 -2.3717 -0.4377 3.4632 -8.6987 -4.6316 -17.8666 9.1748 -7.1563 32.1551 4.0203 -2.9063 14.8135 0.0000 0.0000 0.0000 -16.4756 10.4231 0.1839 17.1379 -27.0392 -4.1498 -0.0000 -0.0000 8.7269 16.7756 5.9847 1.8002 -7.1250 0.0000 -0.0000 -8.3443 36.1208 1.8373 0.0000 0.0000 0.0000 15.9339 -4.8445 11.7078 -12.7239 20.8813 -2.3539 0.0000 -0.0000 -18.3789 -8.5228 1.0234 -0.1534 7.1250 -0.0000 -0.0000 13.9711 -28.8158 5.6616
3.9058 17.4258 -30.0264 1.5492 0.8432 5.0785 0.0000 0.0000 0.0000 -23.6315 -20.4040 -6.3818 2.9524 10.6175 31.0006 0.8094 13.7993 -27.0045 0.0608 1.5917 4.3785 0.0000 0.0000 0.0000 20.4394 27.9619 -3.3589 -3.2145 -11.0345 32.3963 -2.0747 -17.3793 -37.9276 -0.1777 -2.7157 7.4881 -0.4722 -0.7686 -1.8153 -2.5091 -0.9300 2.4526 -2.3650 -0.4401 3.5071 -8.6488 -4.6386 -18.0566 9.1422 -7.1602 32.1903 3.9971 -2.9009 14.8699 0.0000 0.0000 0.0000 -16.5648 10.3366 0.1179 17.0636 -26.9415 -4.1161 -0.0000 -0.0000 8.8739 16.6940 5.9497 1.7805 -7.1250 0.0000 -0.0000 -8.4073 36.0804 1.8598 0.0000 0.0000 0.0000 15.9430 -4.8282 11.7052 -12.7133 20.8657 -2.3502 0.0000 -0.0000 -18.4507 -8.5291 0.9724 -0.1458 7.1250 -0.0000 -0.0000 13.9731 -28.8660 5.6453
3.9003 17.4270 -30.0277 1.5130 0.8609 5.1168 0.0000 0.0000 0.0000 -23.5296 -20.3411 -6.4829 2.9567 10.6246 31.0240 1.2013 12.1296 -28.3023 0.3454 3.7766 10.4489 0.0000 0.0000 0.0000 20.4991 28.0192 -3.3724 -3.2117 -11.0301 32.3813 -2.0754 -17.4260 -37.9706 -0.1819 -2.7474 7.5762 -0.3964 -0.7848 -1.8103 -2.4974 -0.9546 2.4591 -2.3967 -0.4505 3.5090 -8.7125 -4.6368 -18.0121 9.2099 -7.1621 32.1755 4.0366 -2.9019 14.8596 -0.0000 -0.0000 0.0000 -16.6321 10.2909 0.1257 16.9807 -26.8324 -4.0786 -0.0000 -0.0000 9.0351 16.6765 5.8605 1.7520 -7.1250 0.0000 -0.0000 -8.4097 35.9875 1.8796 -0.0000 -0.0000 0.0000 15.9529 -4.7966 11.7436 -12.6702 20.8020 -2.3348 0.0000 -0.0000 -18.3627 -8.5510 1.1046 -0.1661 7.1250 -0.0000 -0.0000 13.9389 -28.7366 5.6749
3.8940 17.4273 -30.0269 1.5140 0.8964 5.1532 0.0000 0.0000 0.0000 -23.4725 -20.3002 -6.5605 2.9597 10.6296 31.0405 1.1661 12.2121 -28.1258 0.3013 3.5292 9.7558 0.0000 0.0000 0.0000 20.5834 28.2466 -3.2757 -3.2105 -11.0283 32.3753 -2.1069 -17.5268 -38.2124 -0.1911 -2.8156 7.7657 -0.3705 -0.8003 -1.7827 -2.4919 -0.9776 2.4286 -2.4056 -0.4618 3.4607 -8.7093 -4.6280 -17.9528 9.1916 -7.1497 32.1945 4.0318 -2.9003 14.8520 -0.0000 -0.0000 0.0000 -16.6805 10.3017 0.2363 16.9344 -26.7712 -4.0577 -0.0000 -0.0000 9.1613 16.4731 5.7482 1.6964 -7.1250 0.0000 -0.0000 -8.5630 35.8611 1.9411 -0.0000 -0.0000 0.0000 15.9401 -4.8186 11.8495 -12.6301 20.7428 -2.3206 0.0000 -0.0000 -18.4013 -8.5378 1.3383 -0.2009 7.1250 -0.0000 -0.0000 13.9184 -28.5070 5.7444
3.8879 17.4277 -30.0268 1.5182 0.9242 5.1875 0.0000 0.0000 0.0000 -23.4226 -20.2675 -6.6385 2.9646 10.6375 31.0670 1.1950 12.0333 -28.1752 0.3228 3.6521 10.0998 0.0000 0.0000 0.0000 20.6456 28.4194 -3.2063 -3.2078 -11.0240 32.3609 -2.1283 -17.6124 -38.3907 -0.1989 -2.8719 7.9223 -0.3412 -0.8137 -1.7555 -2.4930 -0.9972 2.4206 -2.4234 -0.4710 3.4357 -8.7209 -4.6239 -17.9455 9.2056 -7.1466 32.2104 4.0412 -2.8987 14.8586 0.0000 0.0000 0.0000 -16.7283 10.2762 0.2894 16.8752 -26.6930 -4.0311 -0.0000 -0.0000 9.2986 16.3993 5.6716 1.6660 -7.1250 0.0000 -0.0000 -8.6136 35.7785 1.9703 0.0000 0.0000 0.0000 15.9426 -4.8279 11.9237 -12.5871 20.6793 -2.3054 0.0000 -0.0000 -18.4023 -8.5482 1.5617 -0.2347 7.1250 -0.0000 -0.0000 13.8819 -28.2877 5.8029
